#N canvas 2492 69 1708 846 10;
#X obj 49 666 dac~;
#X obj 59 468 *~;
#X obj 408 153 bng 15 250 50 0 empty empty empty 17 7 0 10 #fcfcfc #000000 #000000;
#X obj 55 421 osc~;
#X msg 393 193 0 200;
#X obj 29 153 bng 15 250 50 0 empty empty empty 17 7 0 10 #fcfcfc #000000 #000000;
#X obj 356 117 delay 5;
#X obj 187 527 adc~;
#X obj 62 558 *~;
#X obj 119 560 *~;
#X obj 1783 113 bng 15 250 50 0 empty empty empty 17 7 0 10 #fcfcfc #000000 #000000;
#X msg 1768 153 0 200;
#X obj 1731 77 delay 5;
#X obj 238 60 receive Air;
#X obj 651 771 soundfiler;
#X obj 633 719 read - resize sound/;
#X obj 45 195 random 4;
#X obj 309 156 bng 15 250 50 0 empty empty empty 17 7 0 10 #fcfcfc #000000 #000000;
#X msg 308 199 1 5;
#X obj 323 259 line~;
#X obj 60 495 *~ 0.3;
#X obj 45 232 sel 0 1 2 3, f 29;
#X obj 56 390 mtof;
#X msg 38 295 48;
#X msg 115 299 56;
#X msg 166 303 64;
#X msg 221 298 60;
#X obj 447 641 dac~;
#X obj 457 443 *~;
#X obj 806 128 bng 15 250 50 0 empty empty empty 17 7 0 10 #fcfcfc #000000 #000000;
#X obj 453 396 osc~;
#X msg 791 168 0 200;
#X obj 427 128 bng 15 250 50 0 empty empty empty 17 7 0 10 #fcfcfc #000000 #000000;
#X obj 754 92 delay 5;
#X obj 585 502 adc~;
#X obj 460 533 *~;
#X obj 517 535 *~;
#X obj 443 170 random 4;
#X obj 707 131 bng 15 250 50 0 empty empty empty 17 7 0 10 #fcfcfc #000000 #000000;
#X msg 706 174 1 5;
#X obj 721 234 line~;
#X obj 458 470 *~ 0.3;
#X obj 443 207 sel 0 1 2 3, f 29;
#X obj 454 365 mtof;
#X msg 436 270 48;
#X msg 513 274 56;
#X msg 564 278 64;
#X msg 619 273 60;
#X obj 832 662 dac~;
#X obj 842 464 *~;
#X obj 1191 149 bng 15 250 50 0 empty empty empty 17 7 0 10 #fcfcfc #000000 #000000;
#X obj 838 417 osc~;
#X msg 1176 189 0 200;
#X obj 812 149 bng 15 250 50 0 empty empty empty 17 7 0 10 #fcfcfc #000000 #000000;
#X obj 1139 113 delay 5;
#X obj 970 523 adc~;
#X obj 845 554 *~;
#X obj 902 556 *~;
#X obj 828 191 random 4;
#X obj 1092 152 bng 15 250 50 0 empty empty empty 17 7 0 10 #fcfcfc #000000 #000000;
#X msg 1091 195 1 5;
#X obj 1106 255 line~;
#X obj 843 491 *~ 0.3;
#X obj 828 228 sel 0 1 2 3, f 29;
#X obj 839 386 mtof;
#X msg 821 291 48;
#X msg 898 295 56;
#X msg 949 299 64;
#X msg 1004 294 60;
#X obj 1222 615 dac~;
#X obj 1232 417 *~;
#X obj 1581 102 bng 15 250 50 0 empty empty empty 17 7 0 10 #fcfcfc #000000 #000000;
#X obj 1228 370 osc~;
#X msg 1566 142 0 200;
#X obj 1202 102 bng 15 250 50 0 empty empty empty 17 7 0 10 #fcfcfc #000000 #000000;
#X obj 1529 66 delay 5;
#X obj 1360 476 adc~;
#X obj 1235 507 *~;
#X obj 1292 509 *~;
#X obj 1218 144 random 4;
#X obj 1482 105 bng 15 250 50 0 empty empty empty 17 7 0 10 #fcfcfc #000000 #000000;
#X msg 1481 148 1 5;
#X obj 1496 208 line~;
#X obj 1233 444 *~ 0.3;
#X obj 1218 181 sel 0 1 2 3, f 29;
#X obj 1229 339 mtof;
#X msg 1211 244 48;
#X msg 1288 248 56;
#X msg 1339 252 64;
#X msg 1394 247 60;
#X obj 637 35 receive Earth;
#X obj 1021 56 receive Water;
#X obj 1411 9 receive Fire;
#X connect 1 0 20 0;
#X connect 2 0 4 0;
#X connect 3 0 1 0;
#X connect 4 0 19 0;
#X connect 5 0 16 0;
#X connect 6 0 2 0;
#X connect 7 0 8 1;
#X connect 7 1 9 1;
#X connect 8 0 0 0;
#X connect 9 0 0 1;
#X connect 10 0 11 0;
#X connect 12 0 10 0;
#X connect 13 0 5 0;
#X connect 13 0 6 0;
#X connect 13 0 17 0;
#X connect 16 0 21 0;
#X connect 17 0 18 0;
#X connect 18 0 19 0;
#X connect 19 0 1 1;
#X connect 20 0 8 0;
#X connect 20 0 9 0;
#X connect 21 0 23 0;
#X connect 21 1 24 0;
#X connect 21 2 25 0;
#X connect 21 3 26 0;
#X connect 22 0 3 0;
#X connect 23 0 22 0;
#X connect 24 0 22 0;
#X connect 25 0 22 0;
#X connect 26 0 22 0;
#X connect 28 0 41 0;
#X connect 29 0 31 0;
#X connect 30 0 28 0;
#X connect 31 0 40 0;
#X connect 32 0 37 0;
#X connect 33 0 29 0;
#X connect 34 0 35 1;
#X connect 34 1 36 1;
#X connect 35 0 27 0;
#X connect 36 0 27 1;
#X connect 37 0 42 0;
#X connect 38 0 39 0;
#X connect 39 0 40 0;
#X connect 40 0 28 1;
#X connect 41 0 35 0;
#X connect 41 0 36 0;
#X connect 42 0 44 0;
#X connect 42 1 45 0;
#X connect 42 2 46 0;
#X connect 42 3 47 0;
#X connect 43 0 30 0;
#X connect 44 0 43 0;
#X connect 45 0 43 0;
#X connect 46 0 43 0;
#X connect 47 0 43 0;
#X connect 49 0 62 0;
#X connect 50 0 52 0;
#X connect 51 0 49 0;
#X connect 52 0 61 0;
#X connect 53 0 58 0;
#X connect 54 0 50 0;
#X connect 55 0 56 1;
#X connect 55 1 57 1;
#X connect 56 0 48 0;
#X connect 57 0 48 1;
#X connect 58 0 63 0;
#X connect 59 0 60 0;
#X connect 60 0 61 0;
#X connect 61 0 49 1;
#X connect 62 0 56 0;
#X connect 62 0 57 0;
#X connect 63 0 65 0;
#X connect 63 1 66 0;
#X connect 63 2 67 0;
#X connect 63 3 68 0;
#X connect 64 0 51 0;
#X connect 65 0 64 0;
#X connect 66 0 64 0;
#X connect 67 0 64 0;
#X connect 68 0 64 0;
#X connect 70 0 83 0;
#X connect 71 0 73 0;
#X connect 72 0 70 0;
#X connect 73 0 82 0;
#X connect 74 0 79 0;
#X connect 75 0 71 0;
#X connect 76 0 77 1;
#X connect 76 1 78 1;
#X connect 77 0 69 0;
#X connect 78 0 69 1;
#X connect 79 0 84 0;
#X connect 80 0 81 0;
#X connect 81 0 82 0;
#X connect 82 0 70 1;
#X connect 83 0 77 0;
#X connect 83 0 78 0;
#X connect 84 0 86 0;
#X connect 84 1 87 0;
#X connect 84 2 88 0;
#X connect 84 3 89 0;
#X connect 85 0 72 0;
#X connect 86 0 85 0;
#X connect 87 0 85 0;
#X connect 88 0 85 0;
#X connect 89 0 85 0;
#X connect 90 0 32 0;
#X connect 90 0 33 0;
#X connect 90 0 38 0;
#X connect 91 0 53 0;
#X connect 91 0 54 0;
#X connect 91 0 59 0;
#X connect 92 0 74 0;
#X connect 92 0 75 0;
#X connect 92 0 80 0;
