#N canvas 1 1 1900 946 10;
#X obj 262 644 dac~;
#X obj 262 478 *~;
#X obj 440 351 line~;
#X obj 414 206 bng 15 250 50 0 empty empty empty 17 7 0 10 #fcfcfc #000000 #000000;
#X text 558 277 the simplest boop;
#X msg 413 249 1 5;
#X obj 529 212 bng 15 250 50 0 empty empty empty 17 7 0 10 #fcfcfc #000000 #000000;
#X obj 263 505 *~ 0.4;
#X obj 135 236 mtof;
#X obj 170 439 osc~;
#X obj 135 281 sig~;
#X obj 229 307 *~ 1.5;
#X obj 229 328 osc~;
#X floatatom 261 272 5 0 0 0 - - - 0;
#X obj 165 408 +~;
#X obj 220 361 *~ 20;
#X floatatom 332 286 5 0 0 0 - - - 0;
#X msg 514 252 0 200;
#X obj 137 192 random 20;
#X obj 254 219 / 10;
#X obj 257 166 bng 15 250 50 0 empty empty empty 17 7 0 10 #fcfcfc #000000 #000000;
#X obj 330 230 random 400;
#X obj 330 251 + 100;
#X obj 338 185 bng 15 250 50 0 empty empty empty 17 7 0 10 #fcfcfc #000000 #000000;
#X obj 137 162 bng 15 250 50 0 empty empty empty 17 7 0 10 #fcfcfc #000000 #000000;
#X obj 477 176 delay 5;
#X obj 137 213 + 50;
#X obj 254 199 random 200;
#X obj 680 572 *~;
#X obj 804 570 *~;
#X obj 455 516 adc~;
#X obj 265 568 *~;
#X obj 322 570 *~;
#X obj 514 86 receive TriggerOn;
#X obj 786 109 receive TriggerOff;
#X obj 328 54 bng 16 250 50 0 empty empty empty 0 -8 0 10 #fcfcfc #000000 #000000;
#X connect 1 0 7 0;
#X connect 2 0 1 1;
#X connect 3 0 5 0;
#X connect 5 0 2 0;
#X connect 6 0 17 0;
#X connect 7 0 31 0;
#X connect 7 0 32 0;
#X connect 8 0 10 0;
#X connect 9 0 1 0;
#X connect 10 0 14 0;
#X connect 10 0 11 0;
#X connect 11 0 12 0;
#X connect 12 0 15 0;
#X connect 13 0 11 1;
#X connect 14 0 9 0;
#X connect 15 0 14 1;
#X connect 16 0 15 1;
#X connect 17 0 2 0;
#X connect 18 0 26 0;
#X connect 19 0 13 0;
#X connect 20 0 27 0;
#X connect 21 0 22 0;
#X connect 22 0 16 0;
#X connect 23 0 21 0;
#X connect 24 0 18 0;
#X connect 25 0 6 0;
#X connect 26 0 8 0;
#X connect 27 0 19 0;
#X connect 30 0 31 1;
#X connect 30 1 32 1;
#X connect 31 0 0 0;
#X connect 32 0 0 1;
#X connect 33 0 24 0;
#X connect 33 0 3 0;
#X connect 33 0 25 0;
#X connect 35 0 25 0;
#X connect 35 0 3 0;
#X connect 35 0 24 0;
