#N canvas 1 1 1920 966 10;
#X obj 49 666 dac~;
#X obj 59 468 *~;
#X obj 319 292 line~;
#X obj 293 147 bng 15 250 50 0 empty empty empty 17 7 0 10 #fcfcfc #000000 #000000;
#X msg 292 190 1 5;
#X obj 408 153 bng 15 250 50 0 empty empty empty 17 7 0 10 #fcfcfc #000000 #000000;
#X obj 60 495 *~ 0.4;
#X obj 27 227 mtof;
#X obj 55 421 osc~;
#X obj 27 272 sig~;
#X obj 66 290 *~ 1.5;
#X obj 66 311 osc~;
#X floatatom 98 255 5 0 0 0 - - - 0;
#X obj 57 399 +~;
#X obj 57 344 *~ 20;
#X floatatom 151 282 5 0 0 0 - - - 0;
#X msg 393 193 0 200;
#X obj 29 183 random 20;
#X obj 91 202 / 10;
#X obj 94 149 bng 15 250 50 0 empty empty empty 17 7 0 10 #fcfcfc #000000 #000000;
#X obj 149 226 random 400;
#X obj 149 247 + 100;
#X obj 157 181 bng 15 250 50 0 empty empty empty 17 7 0 10 #fcfcfc #000000 #000000;
#X obj 29 153 bng 15 250 50 0 empty empty empty 17 7 0 10 #fcfcfc #000000 #000000;
#X obj 356 117 delay 5;
#X obj 29 204 + 50;
#X obj 91 182 random 200;
#X obj 187 527 adc~;
#X obj 62 558 *~;
#X obj 119 560 *~;
#X obj 476 639 dac~;
#X obj 486 441 *~;
#X obj 746 265 line~;
#X obj 720 120 bng 15 250 50 0 empty empty empty 17 7 0 10 #fcfcfc #000000 #000000;
#X msg 719 163 1 5;
#X obj 835 126 bng 15 250 50 0 empty empty empty 17 7 0 10 #fcfcfc #000000 #000000;
#X obj 487 468 *~ 0.4;
#X obj 454 200 mtof;
#X obj 485 412 osc~;
#X obj 454 245 sig~;
#X obj 548 271 *~ 1.5;
#X obj 548 292 osc~;
#X floatatom 580 236 5 0 0 0 - - - 0;
#X obj 484 372 +~;
#X obj 539 325 *~ 20;
#X floatatom 663 267 5 0 0 0 - - - 0;
#X msg 820 166 0 200;
#X obj 456 156 random 20;
#X obj 573 183 / 10;
#X obj 576 130 bng 15 250 50 0 empty empty empty 17 7 0 10 #fcfcfc #000000 #000000;
#X obj 661 211 random 400;
#X obj 661 232 + 100;
#X obj 669 166 bng 15 250 50 0 empty empty empty 17 7 0 10 #fcfcfc #000000 #000000;
#X obj 456 126 bng 15 250 50 0 empty empty empty 17 7 0 10 #fcfcfc #000000 #000000;
#X obj 783 90 delay 5;
#X obj 456 177 + 50;
#X obj 573 163 random 200;
#X obj 614 500 adc~;
#X obj 489 531 *~;
#X obj 546 533 *~;
#X obj 967 624 dac~;
#X obj 977 426 *~;
#X obj 1237 250 line~;
#X obj 1211 105 bng 15 250 50 0 empty empty empty 17 7 0 10 #fcfcfc #000000 #000000;
#X msg 1210 148 1 5;
#X obj 1326 111 bng 15 250 50 0 empty empty empty 17 7 0 10 #fcfcfc #000000 #000000;
#X obj 978 453 *~ 0.4;
#X obj 945 185 mtof;
#X obj 976 397 osc~;
#X obj 945 230 sig~;
#X obj 1039 256 *~ 1.5;
#X obj 1039 277 osc~;
#X floatatom 1071 221 5 0 0 0 - - - 0;
#X obj 975 357 +~;
#X obj 1030 310 *~ 20;
#X floatatom 1154 252 5 0 0 0 - - - 0;
#X msg 1311 151 0 200;
#X obj 947 141 random 20;
#X obj 1064 168 / 10;
#X obj 1067 115 bng 15 250 50 0 empty empty empty 17 7 0 10 #fcfcfc #000000 #000000;
#X obj 1152 196 random 400;
#X obj 1152 217 + 100;
#X obj 1160 151 bng 15 250 50 0 empty empty empty 17 7 0 10 #fcfcfc #000000 #000000;
#X obj 947 111 bng 15 250 50 0 empty empty empty 17 7 0 10 #fcfcfc #000000 #000000;
#X obj 1274 75 delay 5;
#X obj 947 162 + 50;
#X obj 1064 148 random 200;
#X obj 1105 485 adc~;
#X obj 980 516 *~;
#X obj 1037 518 *~;
#X obj 1424 626 dac~;
#X obj 1434 428 *~;
#X obj 1694 252 line~;
#X obj 1668 107 bng 15 250 50 0 empty empty empty 17 7 0 10 #fcfcfc #000000 #000000;
#X msg 1667 150 1 5;
#X obj 1783 113 bng 15 250 50 0 empty empty empty 17 7 0 10 #fcfcfc #000000 #000000;
#X obj 1435 455 *~ 0.4;
#X obj 1402 187 mtof;
#X obj 1433 399 osc~;
#X obj 1402 232 sig~;
#X obj 1496 258 *~ 1.5;
#X obj 1496 279 osc~;
#X floatatom 1528 223 5 0 0 0 - - - 0;
#X obj 1432 359 +~;
#X obj 1487 312 *~ 20;
#X floatatom 1611 254 5 0 0 0 - - - 0;
#X msg 1768 153 0 200;
#X obj 1404 143 random 20;
#X obj 1521 170 / 10;
#X obj 1524 117 bng 15 250 50 0 empty empty empty 17 7 0 10 #fcfcfc #000000 #000000;
#X obj 1609 198 random 400;
#X obj 1609 219 + 100;
#X obj 1617 153 bng 15 250 50 0 empty empty empty 17 7 0 10 #fcfcfc #000000 #000000;
#X obj 1404 113 bng 15 250 50 0 empty empty empty 17 7 0 10 #fcfcfc #000000 #000000;
#X obj 1731 77 delay 5;
#X obj 1404 164 + 50;
#X obj 1521 150 random 200;
#X obj 1562 487 adc~;
#X obj 1437 518 *~;
#X obj 1494 520 *~;
#X obj 238 60 receive Air;
#X obj 665 33 receive Fire;
#X obj 1156 18 receive Water;
#X obj 1613 20 receive Earth;
#X obj 549 750 soundfiler;
#X connect 1 0 6 0;
#X connect 2 0 1 1;
#X connect 3 0 4 0;
#X connect 4 0 2 0;
#X connect 5 0 16 0;
#X connect 6 0 28 0;
#X connect 6 0 29 0;
#X connect 7 0 9 0;
#X connect 8 0 1 0;
#X connect 9 0 13 0;
#X connect 9 0 10 0;
#X connect 10 0 11 0;
#X connect 11 0 14 0;
#X connect 12 0 10 1;
#X connect 13 0 8 0;
#X connect 14 0 13 1;
#X connect 15 0 14 1;
#X connect 16 0 2 0;
#X connect 17 0 25 0;
#X connect 18 0 12 0;
#X connect 19 0 26 0;
#X connect 20 0 21 0;
#X connect 21 0 15 0;
#X connect 22 0 20 0;
#X connect 23 0 17 0;
#X connect 24 0 5 0;
#X connect 25 0 7 0;
#X connect 26 0 18 0;
#X connect 27 0 28 1;
#X connect 27 1 29 1;
#X connect 28 0 0 0;
#X connect 29 0 0 1;
#X connect 31 0 36 0;
#X connect 32 0 31 1;
#X connect 33 0 34 0;
#X connect 34 0 32 0;
#X connect 35 0 46 0;
#X connect 36 0 58 0;
#X connect 36 0 59 0;
#X connect 37 0 39 0;
#X connect 38 0 31 0;
#X connect 39 0 43 0;
#X connect 39 0 40 0;
#X connect 40 0 41 0;
#X connect 41 0 44 0;
#X connect 42 0 40 1;
#X connect 43 0 38 0;
#X connect 44 0 43 1;
#X connect 45 0 44 1;
#X connect 46 0 32 0;
#X connect 47 0 55 0;
#X connect 48 0 42 0;
#X connect 49 0 56 0;
#X connect 50 0 51 0;
#X connect 51 0 45 0;
#X connect 52 0 50 0;
#X connect 53 0 47 0;
#X connect 54 0 35 0;
#X connect 55 0 37 0;
#X connect 56 0 48 0;
#X connect 57 0 58 1;
#X connect 57 1 59 1;
#X connect 58 0 30 0;
#X connect 59 0 30 1;
#X connect 61 0 66 0;
#X connect 62 0 61 1;
#X connect 63 0 64 0;
#X connect 64 0 62 0;
#X connect 65 0 76 0;
#X connect 66 0 88 0;
#X connect 66 0 89 0;
#X connect 67 0 69 0;
#X connect 68 0 61 0;
#X connect 69 0 73 0;
#X connect 69 0 70 0;
#X connect 70 0 71 0;
#X connect 71 0 74 0;
#X connect 72 0 70 1;
#X connect 73 0 68 0;
#X connect 74 0 73 1;
#X connect 75 0 74 1;
#X connect 76 0 62 0;
#X connect 77 0 85 0;
#X connect 78 0 72 0;
#X connect 79 0 86 0;
#X connect 80 0 81 0;
#X connect 81 0 75 0;
#X connect 82 0 80 0;
#X connect 83 0 77 0;
#X connect 84 0 65 0;
#X connect 85 0 67 0;
#X connect 86 0 78 0;
#X connect 87 0 88 1;
#X connect 87 1 89 1;
#X connect 88 0 60 0;
#X connect 89 0 60 1;
#X connect 91 0 96 0;
#X connect 92 0 91 1;
#X connect 93 0 94 0;
#X connect 94 0 92 0;
#X connect 95 0 106 0;
#X connect 96 0 118 0;
#X connect 96 0 119 0;
#X connect 97 0 99 0;
#X connect 98 0 91 0;
#X connect 99 0 103 0;
#X connect 99 0 100 0;
#X connect 100 0 101 0;
#X connect 101 0 104 0;
#X connect 102 0 100 1;
#X connect 103 0 98 0;
#X connect 104 0 103 1;
#X connect 105 0 104 1;
#X connect 106 0 92 0;
#X connect 107 0 115 0;
#X connect 108 0 102 0;
#X connect 109 0 116 0;
#X connect 110 0 111 0;
#X connect 111 0 105 0;
#X connect 112 0 110 0;
#X connect 113 0 107 0;
#X connect 114 0 95 0;
#X connect 115 0 97 0;
#X connect 116 0 108 0;
#X connect 117 0 118 1;
#X connect 117 1 119 1;
#X connect 118 0 90 0;
#X connect 119 0 90 1;
#X connect 120 0 23 0;
#X connect 120 0 3 0;
#X connect 120 0 24 0;
#X connect 121 0 53 0;
#X connect 121 0 33 0;
#X connect 121 0 54 0;
#X connect 122 0 83 0;
#X connect 122 0 63 0;
#X connect 122 0 84 0;
#X connect 123 0 113 0;
#X connect 123 0 93 0;
#X connect 123 0 114 0;
