#N canvas 933 201 1920 966 12;
#X obj 1162 137 bng 19 250 50 0 empty empty empty 0 -10 0 12 #fcfcfc #000000 #000000;
#X floatatom 1165 294 5 0 0 0 - - - 0;
#X floatatom 1163 174 5 0 0 0 - - - 0;
#X obj 1191 202 + 1;
#X floatatom 1163 236 5 0 0 0 - - - 0;
#X obj 617 104 bng 19 250 50 0 empty empty empty 0 -10 0 12 #fcfcfc #000000 #000000;
#X floatatom 617 137 5 0 0 0 - - - 0;
#X obj 646 169 + 1;
#X floatatom 622 220 5 0 0 0 - - - 0;
#X obj 169 122 bng 19 250 50 0 empty empty empty 0 -10 0 12 #fcfcfc #000000 #000000;
#X obj 173 303 % 4;
#X obj 175 195 + 1;
#X floatatom 174 238 5 0 0 0 - - - 0;
#X obj 36 809 send MasterSwitch;
#X obj 173 45 receive MasterSwitch;
#X obj 619 35 receive MasterSwitch;
#X obj 1164 63 receive MasterSwitch;
#X floatatom 169 433 5 0 0 0 - - - 0;
#X obj 173 489 mtof;
#X obj 171 510 +~;
#X obj 172 375 bng 19 250 50 0 empty empty empty 0 -10 0 12 #fcfcfc #000000 #000000;
#X obj 234 376 bng 19 250 50 0 empty empty empty 0 -10 0 12 #fcfcfc #000000 #000000;
#X obj 291 376 bng 19 250 50 0 empty empty empty 0 -10 0 12 #fcfcfc #000000 #000000;
#X obj 348 375 bng 19 250 50 0 empty empty empty 0 -10 0 12 #fcfcfc #000000 #000000;
#X obj 516 221 delay 5;
#X obj 516 245 bng 19 250 50 0 empty empty empty 0 -10 0 12 #fcfcfc #000000 #000000;
#X obj 516 293 line~;
#X obj 386 214 bng 19 250 50 0 empty empty empty 0 -10 0 12 #fcfcfc #000000 #000000;
#X msg 386 238 1 5;
#X obj 198 647 *~;
#X obj 171 81 metro 2000;
#X obj 619 63 metro 1000;
#X floatatom 558 483 5 0 0 0 - - - 0;
#X obj 208 603 *~;
#X obj 419 579 mtof;
#X obj 438 614 +~;
#X obj 417 535 +;
#X obj 417 661 phasor~;
#X obj 180 541 phasor~ 130;
#X floatatom 235 429 5 0 0 0 - - - 0;
#X floatatom 291 430 5 0 0 0 - - - 0;
#X floatatom 350 425 5 0 0 0 - - - 0;
#X floatatom 170 157 5 0 0 0 - - - 0;
#X obj 173 328 sel 0 1 2 3, f 35;
#X floatatom 617 400 5 0 0 0 - - - 0;
#X obj 621 469 mtof;
#X obj 619 490 +~;
#X obj 719 916 dac~;
#X obj 624 350 bng 19 250 50 0 empty empty empty 0 -10 0 12 #fcfcfc #000000 #000000;
#X obj 658 350 bng 19 250 50 0 empty empty empty 0 -10 0 12 #fcfcfc #000000 #000000;
#X obj 695 348 bng 19 250 50 0 empty empty empty 0 -10 0 12 #fcfcfc #000000 #000000;
#X obj 742 347 bng 19 250 50 0 empty empty empty 0 -10 0 12 #fcfcfc #000000 #000000;
#X obj 646 627 *~;
#X floatatom 931 483 5 0 0 0 - - - 0;
#X obj 656 583 *~;
#X obj 867 559 mtof;
#X obj 886 594 +~;
#X obj 865 515 +;
#X obj 865 641 phasor~;
#X obj 628 521 phasor~ 130;
#X obj 638 697 lop~ 100;
#X floatatom 659 401 5 0 0 0 - - - 0;
#X floatatom 701 403 5 0 0 0 - - - 0;
#X floatatom 746 401 5 0 0 0 - - - 0;
#X obj 624 309 sel 0 1 2 3 4 5 6 7, f 46;
#X floatatom 791 394 5 0 0 0 - - - 0;
#X obj 798 344 bng 19 250 50 0 empty empty empty 0 -10 0 12 #fcfcfc #000000 #000000;
#X obj 832 344 bng 19 250 50 0 empty empty empty 0 -10 0 12 #fcfcfc #000000 #000000;
#X obj 869 342 bng 19 250 50 0 empty empty empty 0 -10 0 12 #fcfcfc #000000 #000000;
#X obj 916 341 bng 19 250 50 0 empty empty empty 0 -10 0 12 #fcfcfc #000000 #000000;
#X floatatom 833 395 5 0 0 0 - - - 0;
#X floatatom 875 396 5 0 0 0 - - - 0;
#X floatatom 920 395 5 0 0 0 - - - 0;
#X obj 1098 214 delay 5;
#X obj 1098 238 bng 19 250 50 0 empty empty empty 0 -10 0 12 #fcfcfc #000000 #000000;
#X obj 1098 286 line~;
#X obj 968 207 bng 19 250 50 0 empty empty empty 0 -10 0 12 #fcfcfc #000000 #000000;
#X msg 968 231 1 5;
#X msg 1101 261 0 1500;
#X obj 621 283 % 8;
#X floatatom 35 191 5 0 0 0 - - - 0;
#X floatatom 540 178 5 0 0 0 - - - 0;
#X obj 52 88 bng 19 250 50 0 empty empty empty 0 -10 0 12 #fcfcfc #000000 #000000;
#X obj 547 73 bng 19 250 50 0 empty empty empty 0 -10 0 12 #fcfcfc #000000 #000000;
#X msg 519 268 0 2000;
#X obj 643 759 *~ 0.2;
#X obj 190 717 lop~ 100;
#X obj 562 760 *~ 0.3;
#X obj 1167 264 % 16;
#X floatatom 1108 474 5 0 0 0 - - - 0;
#X obj 1117 541 mtof;
#X obj 1115 562 +~;
#X obj 1120 422 bng 19 250 50 0 empty empty empty 0 -10 0 12 #fcfcfc #000000 #000000;
#X obj 1154 422 bng 19 250 50 0 empty empty empty 0 -10 0 12 #fcfcfc #000000 #000000;
#X obj 1191 420 bng 19 250 50 0 empty empty empty 0 -10 0 12 #fcfcfc #000000 #000000;
#X obj 1238 419 bng 19 250 50 0 empty empty empty 0 -10 0 12 #fcfcfc #000000 #000000;
#X obj 1142 699 *~;
#X floatatom 1427 555 5 0 0 0 - - - 0;
#X obj 1152 655 *~;
#X obj 1363 631 mtof;
#X obj 1382 666 +~;
#X obj 1361 587 +;
#X obj 1361 713 phasor~;
#X obj 1134 769 lop~ 100;
#X floatatom 1155 473 5 0 0 0 - - - 0;
#X floatatom 1197 475 5 0 0 0 - - - 0;
#X floatatom 1242 473 5 0 0 0 - - - 0;
#X floatatom 1287 466 5 0 0 0 - - - 0;
#X obj 1294 416 bng 19 250 50 0 empty empty empty 0 -10 0 12 #fcfcfc #000000 #000000;
#X obj 1328 416 bng 19 250 50 0 empty empty empty 0 -10 0 12 #fcfcfc #000000 #000000;
#X obj 1365 414 bng 19 250 50 0 empty empty empty 0 -10 0 12 #fcfcfc #000000 #000000;
#X obj 1412 413 bng 19 250 50 0 empty empty empty 0 -10 0 12 #fcfcfc #000000 #000000;
#X floatatom 1329 467 5 0 0 0 - - - 0;
#X floatatom 1371 463 5 0 0 0 - - - 0;
#X floatatom 1416 467 5 0 0 0 - - - 0;
#X obj 1170 335 sel 0 1 2 3 4 5 6 7 8 9 10 11 12 13 14 15, f 88;
#X obj 1473 417 bng 19 250 50 0 empty empty empty 0 -10 0 12 #fcfcfc #000000 #000000;
#X obj 1507 417 bng 19 250 50 0 empty empty empty 0 -10 0 12 #fcfcfc #000000 #000000;
#X obj 1544 415 bng 19 250 50 0 empty empty empty 0 -10 0 12 #fcfcfc #000000 #000000;
#X obj 1591 414 bng 19 250 50 0 empty empty empty 0 -10 0 12 #fcfcfc #000000 #000000;
#X obj 1647 411 bng 19 250 50 0 empty empty empty 0 -10 0 12 #fcfcfc #000000 #000000;
#X obj 1681 411 bng 19 250 50 0 empty empty empty 0 -10 0 12 #fcfcfc #000000 #000000;
#X obj 1718 409 bng 19 250 50 0 empty empty empty 0 -10 0 12 #fcfcfc #000000 #000000;
#X obj 1765 408 bng 19 250 50 0 empty empty empty 0 -10 0 12 #fcfcfc #000000 #000000;
#X obj 1164 96 metro 250;
#X obj 1703 202 delay 5;
#X obj 1703 226 bng 19 250 50 0 empty empty empty 0 -10 0 12 #fcfcfc #000000 #000000;
#X obj 1703 274 line~;
#X obj 1573 195 bng 19 250 50 0 empty empty empty 0 -10 0 12 #fcfcfc #000000 #000000;
#X msg 1573 219 1 5;
#X msg 1706 249 0 250;
#X obj 50 720 tgl 19 0 empty empty empty 0 -10 0 12 #fcfcfc #000000 #000000 0 1;
#X obj 1124 593 osc~ 130;
#X obj 238 1648 *~ 0.1;
#X obj 195 1237 mtof;
#X obj 195 1261 osc~;
#X obj 276 1235 phasor~ 0.3;
#X obj 308 1316 min~;
#X obj 309 1431 lop~ 40;
#X obj 807 1714 dac~;
#X obj 437 1238 noise~;
#X obj 244 1464 *~;
#X obj 350 1676 *~ 0.1;
#X obj 531 1237 mtof;
#X obj 531 1261 osc~;
#X obj 644 1316 min~;
#X obj 860 1552 lop~ 40;
#X obj 773 1238 noise~;
#X obj 795 1585 *~;
#X obj 612 1235 phasor~ 0.2;
#X obj 431 1415 delwrite~ tbt 200;
#X obj 434 1331 min~;
#X obj 971 1516 delread~ tbt 200;
#X obj 669 1589 *~;
#X obj 815 1282 lop~ 40;
#X obj 552 1605 *~ 0.8;
#X obj 468 1530 delwrite~ tut 120;
#X obj 967 1573 delread~ tut 120;
#X obj 1002 1346 random 80;
#X obj 998 1387 / 100;
#X obj 961 1274 metro 800;
#X obj 965 1213 tgl 19 0 empty empty empty 0 -10 0 12 #fcfcfc #000000 #000000 0 1;
#X obj 1248 1296 random 80;
#X obj 1207 1224 metro 800;
#X obj 1211 1163 tgl 19 0 empty empty empty 0 -10 0 12 #fcfcfc #000000 #000000 0 1;
#X obj 1244 1337 / 100;
#X obj 516 1349 vline~;
#X msg 531 1313 \$1 300;
#X obj 1262 1539 random 80;
#X obj 1221 1467 metro 800;
#X obj 1225 1406 tgl 19 0 empty empty empty 0 -10 0 12 #fcfcfc #000000 #000000 0 1;
#X obj 1258 1580 * 10;
#X obj 377 1021 phasor~;
#X obj 428 1039 phasor~;
#X obj 387 1134 *~;
#X obj 159 1503 delread~ ttt 600;
#X obj 88 1449 delwrite~ ttt 600;
#X obj 209 1602 *~;
#X obj 509 1376 vcf~ 20;
#X obj 692 1023 random 4;
#X obj 687 1060 select 0 1 2 3;
#X obj 911 1021 metro 3000;
#X obj 937 960 tgl 19 0 empty empty empty 0 -10 0 12 #fcfcfc #000000 #000000 0 1;
#X obj 899 1059 random 6000;
#X obj 737 1128 bng 19 250 50 0 empty empty empty 0 -10 0 12 #fcfcfc #000000 #000000;
#X obj 853 1130 bng 19 250 50 0 empty empty empty 0 -10 0 12 #fcfcfc #000000 #000000;
#X obj 681 1138 bng 19 250 50 0 empty empty empty 0 -10 0 12 #fcfcfc #000000 #000000;
#X obj 617 1131 bng 19 250 50 0 empty empty empty 0 -10 0 12 #fcfcfc #000000 #000000;
#X obj 181 1039 random 3;
#X obj 181 1063 sel 0 1 2;
#X obj 164 1115 bng 19 250 50 0 empty empty empty 0 -10 0 12 #fcfcfc #000000 #000000;
#X obj 215 1105 bng 19 250 50 0 empty empty empty 0 -10 0 12 #fcfcfc #000000 #000000;
#X obj 262 1108 bng 19 250 50 0 empty empty empty 0 -10 0 12 #fcfcfc #000000 #000000;
#X obj 852 1101 delay 200;
#X obj 1443 1055 send StartHum;
#X obj 36 610 receive startmusic;
#X msg 177 1160 48;
#X msg 213 1156 56;
#X msg 263 1157 64;
#X msg 526 1170 72;
#X msg 623 1177 52;
#X msg 718 1173 70;
#X msg 817 1172 60;
#X obj 184 966 bng 19 250 50 0 empty empty empty 0 -10 0 12 #fcfcfc #000000 #000000;
#X obj 343 1713 lop~ 100;
#X obj 226 1709 lop~ 100;
#X obj 932 715 line~;
#X obj 962 585 bng 19 250 50 0 empty empty empty 0 -10 0 12 #fcfcfc #000000 #000000;
#X msg 960 658 0 1;
#X msg 1013 667 0 2000;
#X obj 765 747 *~ 0.1;
#X obj 1067 117 bng 19 250 50 0 empty empty empty 0 -10 0 12 #fcfcfc #000000 #000000;
#X floatatom 1059 162 5 0 0 0 - - - 0;
#X connect 0 0 2 0;
#X connect 0 0 128 0;
#X connect 0 0 125 0;
#X connect 1 0 115 0;
#X connect 2 0 3 0;
#X connect 3 0 4 0;
#X connect 4 0 3 1;
#X connect 4 0 88 0;
#X connect 5 0 6 0;
#X connect 5 0 76 0;
#X connect 5 0 73 0;
#X connect 6 0 7 0;
#X connect 7 0 8 0;
#X connect 8 0 7 1;
#X connect 8 0 79 0;
#X connect 9 0 42 0;
#X connect 9 0 24 0;
#X connect 9 0 27 0;
#X connect 10 0 43 0;
#X connect 11 0 12 0;
#X connect 12 0 11 1;
#X connect 12 0 10 0;
#X connect 14 0 30 0;
#X connect 14 0 82 0;
#X connect 15 0 31 0;
#X connect 15 0 83 0;
#X connect 16 0 124 0;
#X connect 16 0 211 0;
#X connect 17 0 18 0;
#X connect 17 0 36 0;
#X connect 18 0 19 0;
#X connect 19 0 38 0;
#X connect 20 0 17 0;
#X connect 21 0 39 0;
#X connect 22 0 40 0;
#X connect 23 0 41 0;
#X connect 24 0 25 0;
#X connect 25 0 84 0;
#X connect 26 0 29 1;
#X connect 27 0 28 0;
#X connect 28 0 26 0;
#X connect 29 0 86 0;
#X connect 30 0 9 0;
#X connect 31 0 5 0;
#X connect 32 0 36 1;
#X connect 33 0 29 0;
#X connect 34 0 35 0;
#X connect 35 0 37 0;
#X connect 36 0 34 0;
#X connect 37 0 33 1;
#X connect 38 0 33 0;
#X connect 39 0 18 0;
#X connect 39 0 36 0;
#X connect 40 0 18 0;
#X connect 40 0 36 0;
#X connect 41 0 18 0;
#X connect 41 0 36 0;
#X connect 42 0 11 0;
#X connect 43 0 20 0;
#X connect 43 1 21 0;
#X connect 43 2 22 0;
#X connect 43 3 23 0;
#X connect 44 0 45 0;
#X connect 44 0 57 0;
#X connect 45 0 46 0;
#X connect 46 0 59 0;
#X connect 48 0 44 0;
#X connect 49 0 61 0;
#X connect 50 0 62 0;
#X connect 51 0 63 0;
#X connect 52 0 60 0;
#X connect 53 0 57 1;
#X connect 54 0 52 0;
#X connect 55 0 56 0;
#X connect 56 0 58 0;
#X connect 57 0 55 0;
#X connect 58 0 54 1;
#X connect 59 0 54 0;
#X connect 60 0 85 0;
#X connect 61 0 45 0;
#X connect 61 0 57 0;
#X connect 62 0 45 0;
#X connect 62 0 57 0;
#X connect 63 0 45 0;
#X connect 63 0 57 0;
#X connect 64 0 48 0;
#X connect 64 1 49 0;
#X connect 64 2 50 0;
#X connect 64 3 51 0;
#X connect 64 4 66 0;
#X connect 64 5 67 0;
#X connect 64 6 68 0;
#X connect 64 7 69 0;
#X connect 65 0 45 0;
#X connect 66 0 65 0;
#X connect 67 0 70 0;
#X connect 68 0 71 0;
#X connect 69 0 72 0;
#X connect 70 0 45 0;
#X connect 71 0 45 0;
#X connect 72 0 45 0;
#X connect 73 0 74 0;
#X connect 74 0 78 0;
#X connect 75 0 52 1;
#X connect 76 0 77 0;
#X connect 77 0 75 0;
#X connect 78 0 75 0;
#X connect 79 0 64 0;
#X connect 80 0 12 0;
#X connect 81 0 8 0;
#X connect 82 0 80 0;
#X connect 83 0 81 0;
#X connect 84 0 26 0;
#X connect 85 0 47 0;
#X connect 85 0 47 1;
#X connect 86 0 87 0;
#X connect 87 0 47 0;
#X connect 87 0 47 1;
#X connect 88 0 1 0;
#X connect 89 0 90 0;
#X connect 89 0 101 0;
#X connect 90 0 91 0;
#X connect 91 0 132 0;
#X connect 92 0 89 0;
#X connect 93 0 104 0;
#X connect 94 0 105 0;
#X connect 95 0 106 0;
#X connect 96 0 103 0;
#X connect 97 0 101 1;
#X connect 98 0 96 0;
#X connect 99 0 100 0;
#X connect 100 0 102 0;
#X connect 101 0 99 0;
#X connect 102 0 98 1;
#X connect 103 0 210 0;
#X connect 104 0 90 0;
#X connect 104 0 101 0;
#X connect 105 0 90 0;
#X connect 105 0 101 0;
#X connect 106 0 90 0;
#X connect 106 0 101 0;
#X connect 107 0 90 0;
#X connect 108 0 107 0;
#X connect 109 0 112 0;
#X connect 110 0 113 0;
#X connect 111 0 114 0;
#X connect 112 0 90 0;
#X connect 113 0 90 0;
#X connect 114 0 90 0;
#X connect 115 0 92 0;
#X connect 115 1 93 0;
#X connect 115 2 94 0;
#X connect 115 3 95 0;
#X connect 115 4 108 0;
#X connect 115 5 109 0;
#X connect 115 6 110 0;
#X connect 115 7 111 0;
#X connect 115 8 116 0;
#X connect 115 9 117 0;
#X connect 115 10 118 0;
#X connect 115 11 119 0;
#X connect 115 12 120 0;
#X connect 115 13 121 0;
#X connect 115 14 122 0;
#X connect 115 15 123 0;
#X connect 124 0 0 0;
#X connect 125 0 126 0;
#X connect 126 0 130 0;
#X connect 127 0 96 1;
#X connect 128 0 129 0;
#X connect 129 0 127 0;
#X connect 130 0 127 0;
#X connect 131 0 13 0;
#X connect 132 0 98 0;
#X connect 133 0 205 0;
#X connect 134 0 135 0;
#X connect 134 0 172 0;
#X connect 135 0 141 0;
#X connect 135 0 151 0;
#X connect 136 0 137 0;
#X connect 136 0 151 0;
#X connect 137 0 138 0;
#X connect 138 0 141 1;
#X connect 140 0 137 1;
#X connect 141 0 133 0;
#X connect 142 0 204 0;
#X connect 143 0 144 0;
#X connect 143 0 173 0;
#X connect 144 0 148 0;
#X connect 144 0 151 1;
#X connect 145 0 146 0;
#X connect 146 0 148 1;
#X connect 147 0 145 1;
#X connect 148 0 142 0;
#X connect 149 0 145 0;
#X connect 149 0 151 1;
#X connect 149 0 154 0;
#X connect 151 0 156 0;
#X connect 151 0 176 0;
#X connect 151 0 178 0;
#X connect 152 0 133 0;
#X connect 153 0 155 0;
#X connect 154 0 153 1;
#X connect 155 0 150 0;
#X connect 157 0 142 0;
#X connect 157 0 153 0;
#X connect 158 0 159 0;
#X connect 159 0 149 0;
#X connect 160 0 158 0;
#X connect 161 0 160 0;
#X connect 162 0 165 0;
#X connect 163 0 162 0;
#X connect 164 0 163 0;
#X connect 165 0 136 0;
#X connect 166 0 178 1;
#X connect 167 0 166 0;
#X connect 167 0 136 1;
#X connect 168 0 171 0;
#X connect 169 0 168 0;
#X connect 170 0 169 0;
#X connect 171 0 167 0;
#X connect 172 0 174 0;
#X connect 173 0 174 1;
#X connect 174 0 178 0;
#X connect 175 0 177 0;
#X connect 177 0 133 0;
#X connect 177 0 142 0;
#X connect 178 0 150 0;
#X connect 178 0 177 1;
#X connect 179 0 180 0;
#X connect 180 0 187 0;
#X connect 180 1 186 0;
#X connect 180 2 184 0;
#X connect 180 3 185 0;
#X connect 181 0 179 0;
#X connect 181 0 183 0;
#X connect 181 0 193 0;
#X connect 182 0 181 0;
#X connect 183 0 181 1;
#X connect 184 0 201 0;
#X connect 185 0 202 0;
#X connect 186 0 200 0;
#X connect 187 0 199 0;
#X connect 188 0 189 0;
#X connect 189 0 190 0;
#X connect 189 1 191 0;
#X connect 189 2 192 0;
#X connect 190 0 196 0;
#X connect 191 0 197 0;
#X connect 192 0 198 0;
#X connect 195 0 131 0;
#X connect 196 0 134 0;
#X connect 197 0 134 0;
#X connect 198 0 134 0;
#X connect 199 0 143 0;
#X connect 200 0 143 0;
#X connect 201 0 143 0;
#X connect 202 0 143 0;
#X connect 203 0 188 0;
#X connect 204 0 139 1;
#X connect 205 0 139 0;
#X connect 206 0 210 1;
#X connect 207 0 208 0;
#X connect 207 0 209 0;
#X connect 208 0 206 0;
#X connect 209 0 206 0;
#X connect 210 0 47 0;
#X connect 210 0 47 1;
#X connect 211 0 212 0;
#X connect 212 0 4 0;
