#N canvas 2401 1 1688 826 12;
#X obj 1162 137 bng 19 250 50 0 empty empty empty 0 -10 0 12 #fcfcfc #000000 #000000;
#X floatatom 1165 294 5 0 0 0 - - - 0;
#X obj 1191 202 + 1;
#X floatatom 1163 236 5 0 0 0 - - - 0;
#X obj 617 104 bng 19 250 50 0 empty empty empty 0 -10 0 12 #fcfcfc #000000 #000000;
#X obj 623 189 + 1;
#X floatatom 622 220 5 0 0 0 - - - 0;
#X obj 169 122 bng 19 250 50 0 empty empty empty 0 -10 0 12 #fcfcfc #000000 #000000;
#X obj 173 303 % 4;
#X obj 175 195 + 1;
#X floatatom 174 238 5 0 0 0 - - - 0;
#X floatatom 169 434 5 0 0 0 - - - 0;
#X obj 173 489 mtof;
#X obj 171 510 +~;
#X obj 172 375 bng 19 250 50 0 empty empty empty 0 -10 0 12 #fcfcfc #000000 #000000;
#X obj 234 376 bng 19 250 50 0 empty empty empty 0 -10 0 12 #fcfcfc #000000 #000000;
#X obj 291 376 bng 19 250 50 0 empty empty empty 0 -10 0 12 #fcfcfc #000000 #000000;
#X obj 348 375 bng 19 250 50 0 empty empty empty 0 -10 0 12 #fcfcfc #000000 #000000;
#X obj 516 221 delay 5;
#X obj 516 245 bng 19 250 50 0 empty empty empty 0 -10 0 12 #fcfcfc #000000 #000000;
#X obj 516 293 line~;
#X obj 386 214 bng 19 250 50 0 empty empty empty 0 -10 0 12 #fcfcfc #000000 #000000;
#X msg 386 238 1 5;
#X obj 198 647 *~;
#X obj 171 81 metro 2000;
#X obj 619 63 metro 1000;
#X obj 208 603 *~;
#X obj 419 579 mtof;
#X obj 438 614 +~;
#X obj 417 535 +;
#X obj 417 661 phasor~;
#X obj 180 541 phasor~ 130;
#X floatatom 235 424 5 0 0 0 - - - 0;
#X floatatom 291 430 5 0 0 0 - - - 0;
#X floatatom 350 425 5 0 0 0 - - - 0;
#X obj 173 328 sel 0 1 2 3, f 35;
#X floatatom 617 400 5 0 0 0 - - - 0;
#X obj 621 469 mtof;
#X obj 619 490 +~;
#X obj 624 350 bng 19 250 50 0 empty empty empty 0 -10 0 12 #fcfcfc #000000 #000000;
#X obj 658 350 bng 19 250 50 0 empty empty empty 0 -10 0 12 #fcfcfc #000000 #000000;
#X obj 695 348 bng 19 250 50 0 empty empty empty 0 -10 0 12 #fcfcfc #000000 #000000;
#X obj 742 347 bng 19 250 50 0 empty empty empty 0 -10 0 12 #fcfcfc #000000 #000000;
#X obj 646 627 *~;
#X obj 656 583 *~;
#X obj 867 559 mtof;
#X obj 886 594 +~;
#X obj 865 515 +;
#X obj 865 641 phasor~;
#X obj 628 521 phasor~ 130;
#X obj 638 697 lop~ 100;
#X floatatom 659 401 5 0 0 0 - - - 0;
#X floatatom 701 403 5 0 0 0 - - - 0;
#X floatatom 746 401 5 0 0 0 - - - 0;
#X obj 624 309 sel 0 1 2 3 4 5 6 7, f 46;
#X floatatom 791 394 5 0 0 0 - - - 0;
#X obj 798 344 bng 19 250 50 0 empty empty empty 0 -10 0 12 #fcfcfc #000000 #000000;
#X obj 832 344 bng 19 250 50 0 empty empty empty 0 -10 0 12 #fcfcfc #000000 #000000;
#X obj 869 342 bng 19 250 50 0 empty empty empty 0 -10 0 12 #fcfcfc #000000 #000000;
#X obj 916 341 bng 19 250 50 0 empty empty empty 0 -10 0 12 #fcfcfc #000000 #000000;
#X floatatom 833 395 5 0 0 0 - - - 0;
#X floatatom 875 396 5 0 0 0 - - - 0;
#X floatatom 920 395 5 0 0 0 - - - 0;
#X obj 1098 214 delay 5;
#X obj 1098 238 bng 19 250 50 0 empty empty empty 0 -10 0 12 #fcfcfc #000000 #000000;
#X obj 1098 286 line~;
#X obj 968 207 bng 19 250 50 0 empty empty empty 0 -10 0 12 #fcfcfc #000000 #000000;
#X msg 968 231 1 5;
#X msg 1101 261 0 1500;
#X obj 621 283 % 8;
#X obj 52 88 bng 19 250 50 0 empty empty empty 0 -10 0 12 #fcfcfc #000000 #000000;
#X obj 547 73 bng 19 250 50 0 empty empty empty 0 -10 0 12 #fcfcfc #000000 #000000;
#X msg 519 268 0 2000;
#X obj 643 759 *~ 0.2;
#X obj 190 717 lop~ 100;
#X obj 562 760 *~ 0.3;
#X obj 1167 264 % 16;
#X floatatom 1108 474 5 0 0 0 - - - 0;
#X obj 1117 541 mtof;
#X obj 1115 562 +~;
#X obj 1120 422 bng 19 250 50 0 empty empty empty 0 -10 0 12 #fcfcfc #000000 #000000;
#X obj 1154 422 bng 19 250 50 0 empty empty empty 0 -10 0 12 #fcfcfc #000000 #000000;
#X obj 1191 420 bng 19 250 50 0 empty empty empty 0 -10 0 12 #fcfcfc #000000 #000000;
#X obj 1238 419 bng 19 250 50 0 empty empty empty 0 -10 0 12 #fcfcfc #000000 #000000;
#X obj 1142 699 *~;
#X floatatom 1427 555 5 0 0 0 - - - 0;
#X obj 1152 655 *~;
#X obj 1363 631 mtof;
#X obj 1382 666 +~;
#X obj 1361 587 +;
#X obj 1361 713 phasor~;
#X obj 1134 769 lop~ 100;
#X floatatom 1155 473 5 0 0 0 - - - 0;
#X floatatom 1197 475 5 0 0 0 - - - 0;
#X floatatom 1242 473 5 0 0 0 - - - 0;
#X floatatom 1287 466 5 0 0 0 - - - 0;
#X obj 1294 416 bng 19 250 50 0 empty empty empty 0 -10 0 12 #fcfcfc #000000 #000000;
#X obj 1328 416 bng 19 250 50 0 empty empty empty 0 -10 0 12 #fcfcfc #000000 #000000;
#X obj 1365 414 bng 19 250 50 0 empty empty empty 0 -10 0 12 #fcfcfc #000000 #000000;
#X obj 1412 413 bng 19 250 50 0 empty empty empty 0 -10 0 12 #fcfcfc #000000 #000000;
#X floatatom 1329 467 5 0 0 0 - - - 0;
#X floatatom 1371 463 5 0 0 0 - - - 0;
#X floatatom 1416 467 5 0 0 0 - - - 0;
#X obj 1170 335 sel 0 1 2 3 4 5 6 7 8 9 10 11 12 13 14 15, f 88;
#X obj 1473 417 bng 19 250 50 0 empty empty empty 0 -10 0 12 #fcfcfc #000000 #000000;
#X obj 1507 417 bng 19 250 50 0 empty empty empty 0 -10 0 12 #fcfcfc #000000 #000000;
#X obj 1544 415 bng 19 250 50 0 empty empty empty 0 -10 0 12 #fcfcfc #000000 #000000;
#X obj 1591 414 bng 19 250 50 0 empty empty empty 0 -10 0 12 #fcfcfc #000000 #000000;
#X obj 1647 411 bng 19 250 50 0 empty empty empty 0 -10 0 12 #fcfcfc #000000 #000000;
#X obj 1681 411 bng 19 250 50 0 empty empty empty 0 -10 0 12 #fcfcfc #000000 #000000;
#X obj 1718 409 bng 19 250 50 0 empty empty empty 0 -10 0 12 #fcfcfc #000000 #000000;
#X obj 1765 408 bng 19 250 50 0 empty empty empty 0 -10 0 12 #fcfcfc #000000 #000000;
#X obj 1164 96 metro 250;
#X obj 1703 202 delay 5;
#X obj 1703 226 bng 19 250 50 0 empty empty empty 0 -10 0 12 #fcfcfc #000000 #000000;
#X obj 1703 274 line~;
#X obj 1573 195 bng 19 250 50 0 empty empty empty 0 -10 0 12 #fcfcfc #000000 #000000;
#X msg 1573 219 1 5;
#X msg 1706 249 0 250;
#X obj 50 720 tgl 19 0 empty empty empty 0 -10 0 12 #fcfcfc #000000 #000000 0 1;
#X obj 1124 593 osc~ 130;
#X obj 195 1237 mtof;
#X obj 193 1269 osc~;
#X obj 276 1235 phasor~ 0.3;
#X obj 308 1316 min~;
#X obj 309 1431 lop~ 40;
#X obj 437 1238 noise~;
#X obj 249 1483 *~;
#X obj 531 1237 mtof;
#X obj 531 1261 osc~;
#X obj 644 1316 min~;
#X obj 778 1508 lop~ 40;
#X obj 773 1238 noise~;
#X obj 713 1541 *~;
#X obj 612 1235 phasor~ 0.2;
#X obj 431 1415 delwrite~ tbt 200;
#X obj 434 1331 min~;
#X obj 889 1472 delread~ tbt 200;
#X obj 587 1545 *~;
#X obj 815 1282 lop~ 40;
#X obj 474 1550 *~ 0.8;
#X obj 386 1486 delwrite~ tut 120;
#X obj 885 1529 delread~ tut 120;
#X obj 1002 1346 random 80;
#X obj 998 1387 / 100;
#X obj 961 1274 metro 800;
#X obj 965 1213 tgl 19 0 empty empty empty 0 -10 0 12 #fcfcfc #000000 #000000 0 1;
#X obj 1248 1296 random 80;
#X obj 1207 1224 metro 800;
#X obj 1196 1163 tgl 19 0 empty empty empty 0 -10 0 12 #fcfcfc #000000 #000000 0 1;
#X obj 1244 1337 / 100;
#X obj 516 1349 vline~;
#X msg 531 1313 \$1 300;
#X obj 1258 1787 random 80;
#X obj 1217 1715 metro 800;
#X obj 1225 1406 tgl 19 0 empty empty empty 0 -10 0 12 #fcfcfc #000000 #000000 0 1;
#X obj 1254 1828 * 10;
#X obj 377 1021 phasor~;
#X obj 428 1039 phasor~;
#X obj 387 1134 *~;
#X obj 164 1522 delread~ ttt 600;
#X obj 75 1428 delwrite~ ttt 600;
#X obj 214 1621 *~;
#X obj 509 1376 vcf~ 20;
#X obj 692 1023 random 4;
#X obj 687 1060 select 0 1 2 3;
#X obj 911 1021 metro 3000;
#X obj 923 971 tgl 19 0 empty empty empty 0 -10 0 12 #fcfcfc #000000 #000000 0 1;
#X obj 899 1059 random 6000;
#X obj 737 1128 bng 19 250 50 0 empty empty empty 0 -10 0 12 #fcfcfc #000000 #000000;
#X obj 853 1130 bng 19 250 50 0 empty empty empty 0 -10 0 12 #fcfcfc #000000 #000000;
#X obj 681 1138 bng 19 250 50 0 empty empty empty 0 -10 0 12 #fcfcfc #000000 #000000;
#X obj 617 1131 bng 19 250 50 0 empty empty empty 0 -10 0 12 #fcfcfc #000000 #000000;
#X obj 164 1115 bng 19 250 50 0 empty empty empty 0 -10 0 12 #fcfcfc #000000 #000000;
#X obj 215 1105 bng 19 250 50 0 empty empty empty 0 -10 0 12 #fcfcfc #000000 #000000;
#X obj 262 1108 bng 19 250 50 0 empty empty empty 0 -10 0 12 #fcfcfc #000000 #000000;
#X obj 852 1101 delay 200;
#X obj 36 610 receive startmusic;
#X msg 177 1160 48;
#X msg 213 1156 56;
#X msg 263 1157 64;
#X msg 526 1170 72;
#X msg 623 1177 52;
#X msg 718 1173 70;
#X msg 817 1172 60;
#X obj 155 998 bng 19 250 50 0 empty empty empty 0 -10 0 12 #fcfcfc #000000 #000000;
#X obj 899 1686 lop~ 100;
#X obj 782 1682 lop~ 100;
#X obj 765 747 *~ 0.1;
#X obj 1067 117 bng 19 250 50 0 empty empty empty 0 -10 0 12 #fcfcfc #000000 #000000;
#X obj 914 1793 delwrite~ delay 600;
#X obj 924 1854 delread~ delay 600;
#X obj 923 1912 *~;
#X obj 979 1883 hsl 162 19 0 1 0 0 empty empty empty -2 -10 0 12 #fcfcfc #000000 #000000 0 1;
#X obj 961 1922 *~;
#X obj 1022 1949 send~ feedback;
#X obj 935 1751 receive~ feedback;
#X obj 69 1616 receive~ feedback;
#X obj 111 1808 *~;
#X obj 201 1799 hsl 162 19 0 1 0 0 empty empty empty -2 -10 0 12 #fcfcfc #000000 #000000 0 1;
#X obj 422 1741 *~;
#X obj 483 1768 send~ feedback;
#X obj 48 1658 delwrite~ delayextra 600;
#X obj 112 1750 delread~ delayextra 600;
#X obj 736 1811 adc~;
#X obj 522 1889 *~;
#X obj 461 1878 *~;
#X obj 972 910 receive StartDrone;
#X obj 1210 1051 receive StartDrone;
#X obj 1625 988 bng 19 250 50 0 empty empty empty 0 -10 0 12 #fcfcfc #000000 #000000;
#X obj 490 1922 dac~;
#X obj 1601 612 send MasterSwitch;
#X obj 1605 535 bng 19 250 50 0 empty empty empty 0 -10 0 12 #fcfcfc #000000 #000000;
#X obj 1614 568 tgl 19 0 empty empty empty 0 -10 0 12 #fcfcfc #000000 #000000 0 1;
#X msg 44 181 4;
#X msg 1076 161 16;
#X msg 519 470 26;
#X msg 974 451 -7;
#X msg 171 161 1;
#X msg 618 146 1;
#X msg 552 158 8;
#X msg 1166 171 1;
#X obj 181 1039 random 4;
#X obj 167 956 receive Changeplatform;
#X obj 181 1063 sel 0 1 2 3;
#X obj 307 1104 bng 19 250 50 0 empty empty empty 0 -10 0 12 #fcfcfc #000000 #000000;
#X msg 308 1153 60, f 2;
#X msg 1100 1827 0.4;
#X msg 330 1766 0.4;
#X obj 1097 1777 receive Reverse;
#X obj 318 1711 receive Reverse;
#X obj 1391 881 receive StopDrone;
#X msg 362 1593 0;
#X obj 339 1543 receive StopDrone;
#X obj 877 816 adc~;
#X obj 663 894 *~;
#X obj 602 883 *~;
#X obj 631 927 dac~;
#X msg 24 387 48;
#X msg 63 386 56;
#X msg 99 380 64;
#X msg 135 379 60;
#X msg 425 384 48;
#X msg 464 383 56;
#X msg 500 377 64;
#X msg 536 376 60;
#X msg 782 247 48;
#X msg 821 246 56;
#X msg 857 240 64;
#X msg 893 239 60;
#X obj 61 316 loadbang;
#X obj 792 190 loadbang;
#X obj 464 328 loadbang;
#X msg 1034 376 48;
#X msg 1073 375 56;
#X msg 1109 369 64;
#X msg 1145 368 60;
#X obj 1044 319 loadbang;
#X msg 1577 480 48;
#X msg 1616 479 56;
#X msg 1652 473 64;
#X msg 1688 472 60;
#X obj 1587 423 loadbang;
#X obj 1164 63 receive MasterSwitch;
#X obj 906 1649 *~ 0.2;
#X obj 243 1667 *~ 0.2;
#X obj 709 -8 receive Reverse;
#X obj 265 10 receive Reverse;
#X obj 261 47 tgl 19 0 empty empty empty 0 -10 0 12 #fcfcfc #000000 #000000 0 1;
#X obj 709 16 tgl 19 0 empty empty empty 0 -10 0 12 #fcfcfc #000000 #000000 0 1;
#X connect 0 0 116 0;
#X connect 0 0 113 0;
#X connect 0 0 221 0;
#X connect 1 0 103 0;
#X connect 2 0 3 0;
#X connect 3 0 2 1;
#X connect 3 0 76 0;
#X connect 4 0 66 0;
#X connect 4 0 63 0;
#X connect 4 0 219 0;
#X connect 5 0 6 0;
#X connect 6 0 5 1;
#X connect 6 0 69 0;
#X connect 7 0 18 0;
#X connect 7 0 21 0;
#X connect 7 0 218 0;
#X connect 8 0 35 0;
#X connect 9 0 10 0;
#X connect 10 0 9 1;
#X connect 10 0 8 0;
#X connect 11 0 12 0;
#X connect 11 0 29 0;
#X connect 12 0 13 0;
#X connect 13 0 31 0;
#X connect 14 0 11 0;
#X connect 15 0 32 0;
#X connect 16 0 33 0;
#X connect 17 0 34 0;
#X connect 18 0 19 0;
#X connect 19 0 72 0;
#X connect 20 0 23 1;
#X connect 21 0 22 0;
#X connect 22 0 20 0;
#X connect 23 0 74 0;
#X connect 24 0 7 0;
#X connect 25 0 4 0;
#X connect 26 0 23 0;
#X connect 27 0 28 0;
#X connect 28 0 30 0;
#X connect 29 0 27 0;
#X connect 30 0 26 1;
#X connect 31 0 26 0;
#X connect 32 0 12 0;
#X connect 32 0 29 0;
#X connect 33 0 12 0;
#X connect 33 0 29 0;
#X connect 34 0 12 0;
#X connect 34 0 29 0;
#X connect 35 0 14 0;
#X connect 35 1 15 0;
#X connect 35 2 16 0;
#X connect 35 3 17 0;
#X connect 36 0 37 0;
#X connect 36 0 47 0;
#X connect 37 0 38 0;
#X connect 38 0 49 0;
#X connect 39 0 36 0;
#X connect 40 0 51 0;
#X connect 41 0 52 0;
#X connect 42 0 53 0;
#X connect 43 0 50 0;
#X connect 44 0 43 0;
#X connect 45 0 46 0;
#X connect 46 0 48 0;
#X connect 47 0 45 0;
#X connect 48 0 44 1;
#X connect 49 0 44 0;
#X connect 50 0 73 0;
#X connect 51 0 37 0;
#X connect 51 0 47 0;
#X connect 52 0 37 0;
#X connect 52 0 47 0;
#X connect 53 0 37 0;
#X connect 53 0 47 0;
#X connect 54 0 39 0;
#X connect 54 1 40 0;
#X connect 54 2 41 0;
#X connect 54 3 42 0;
#X connect 54 4 56 0;
#X connect 54 5 57 0;
#X connect 54 6 58 0;
#X connect 54 7 59 0;
#X connect 55 0 37 0;
#X connect 56 0 55 0;
#X connect 57 0 60 0;
#X connect 58 0 61 0;
#X connect 59 0 62 0;
#X connect 60 0 37 0;
#X connect 61 0 37 0;
#X connect 62 0 37 0;
#X connect 63 0 64 0;
#X connect 64 0 68 0;
#X connect 65 0 43 1;
#X connect 66 0 67 0;
#X connect 67 0 65 0;
#X connect 68 0 65 0;
#X connect 69 0 54 0;
#X connect 70 0 214 0;
#X connect 71 0 220 0;
#X connect 72 0 20 0;
#X connect 73 0 236 0;
#X connect 73 0 235 0;
#X connect 74 0 75 0;
#X connect 75 0 236 0;
#X connect 75 0 235 0;
#X connect 76 0 1 0;
#X connect 77 0 78 0;
#X connect 77 0 89 0;
#X connect 78 0 79 0;
#X connect 79 0 120 0;
#X connect 80 0 77 0;
#X connect 81 0 92 0;
#X connect 82 0 93 0;
#X connect 83 0 94 0;
#X connect 84 0 91 0;
#X connect 85 0 89 1;
#X connect 86 0 84 0;
#X connect 87 0 88 0;
#X connect 88 0 90 0;
#X connect 89 0 87 0;
#X connect 90 0 86 1;
#X connect 91 0 188 0;
#X connect 92 0 78 0;
#X connect 92 0 89 0;
#X connect 93 0 78 0;
#X connect 93 0 89 0;
#X connect 94 0 78 0;
#X connect 94 0 89 0;
#X connect 95 0 78 0;
#X connect 96 0 95 0;
#X connect 97 0 100 0;
#X connect 98 0 101 0;
#X connect 99 0 102 0;
#X connect 100 0 78 0;
#X connect 101 0 78 0;
#X connect 102 0 78 0;
#X connect 103 0 80 0;
#X connect 103 1 81 0;
#X connect 103 2 82 0;
#X connect 103 3 83 0;
#X connect 103 4 96 0;
#X connect 103 5 97 0;
#X connect 103 6 98 0;
#X connect 103 7 99 0;
#X connect 103 8 104 0;
#X connect 103 9 105 0;
#X connect 103 10 106 0;
#X connect 103 11 107 0;
#X connect 103 12 108 0;
#X connect 103 13 109 0;
#X connect 103 14 110 0;
#X connect 103 15 111 0;
#X connect 112 0 0 0;
#X connect 113 0 114 0;
#X connect 114 0 118 0;
#X connect 115 0 84 1;
#X connect 116 0 117 0;
#X connect 117 0 115 0;
#X connect 118 0 115 0;
#X connect 120 0 86 0;
#X connect 121 0 122 0;
#X connect 121 0 157 0;
#X connect 122 0 127 0;
#X connect 122 0 136 0;
#X connect 123 0 124 0;
#X connect 123 0 136 0;
#X connect 124 0 125 0;
#X connect 125 0 127 1;
#X connect 126 0 124 1;
#X connect 127 0 265 0;
#X connect 128 0 129 0;
#X connect 128 0 158 0;
#X connect 129 0 133 0;
#X connect 129 0 136 1;
#X connect 130 0 131 0;
#X connect 131 0 133 1;
#X connect 132 0 130 1;
#X connect 133 0 264 0;
#X connect 134 0 130 0;
#X connect 134 0 136 1;
#X connect 134 0 139 0;
#X connect 136 0 141 0;
#X connect 136 0 161 0;
#X connect 136 0 163 0;
#X connect 137 0 265 0;
#X connect 138 0 140 0;
#X connect 139 0 138 1;
#X connect 140 0 135 0;
#X connect 142 0 138 0;
#X connect 142 0 264 0;
#X connect 143 0 144 0;
#X connect 144 0 134 0;
#X connect 145 0 143 0;
#X connect 146 0 145 0;
#X connect 147 0 150 0;
#X connect 148 0 147 0;
#X connect 149 0 148 0;
#X connect 150 0 123 0;
#X connect 151 0 163 1;
#X connect 152 0 151 0;
#X connect 152 0 123 1;
#X connect 153 0 156 0;
#X connect 154 0 153 0;
#X connect 155 0 154 0;
#X connect 156 0 152 0;
#X connect 157 0 159 0;
#X connect 158 0 159 1;
#X connect 159 0 163 0;
#X connect 160 0 162 0;
#X connect 162 0 202 0;
#X connect 162 0 264 0;
#X connect 162 0 265 0;
#X connect 163 0 135 0;
#X connect 163 0 162 1;
#X connect 164 0 165 0;
#X connect 165 0 172 0;
#X connect 165 1 171 0;
#X connect 165 2 169 0;
#X connect 165 3 170 0;
#X connect 166 0 164 0;
#X connect 166 0 168 0;
#X connect 166 0 176 0;
#X connect 167 0 166 0;
#X connect 168 0 166 1;
#X connect 169 0 183 0;
#X connect 170 0 184 0;
#X connect 171 0 182 0;
#X connect 172 0 181 0;
#X connect 173 0 178 0;
#X connect 174 0 179 0;
#X connect 175 0 180 0;
#X connect 177 0 119 0;
#X connect 178 0 121 0;
#X connect 179 0 121 0;
#X connect 180 0 121 0;
#X connect 181 0 128 0;
#X connect 182 0 128 0;
#X connect 183 0 128 0;
#X connect 184 0 128 0;
#X connect 185 0 222 0;
#X connect 186 0 190 0;
#X connect 186 0 205 0;
#X connect 186 0 206 0;
#X connect 187 0 190 0;
#X connect 187 0 205 0;
#X connect 187 0 206 0;
#X connect 188 0 236 0;
#X connect 188 0 235 0;
#X connect 189 0 215 0;
#X connect 191 0 192 0;
#X connect 191 0 194 0;
#X connect 192 0 205 0;
#X connect 193 0 192 1;
#X connect 194 0 195 0;
#X connect 196 0 190 0;
#X connect 197 0 202 0;
#X connect 198 0 206 0;
#X connect 199 0 198 1;
#X connect 200 0 201 0;
#X connect 203 0 198 0;
#X connect 203 0 200 0;
#X connect 204 0 205 1;
#X connect 204 1 206 1;
#X connect 205 0 210 1;
#X connect 206 0 210 0;
#X connect 207 0 167 0;
#X connect 208 0 149 0;
#X connect 208 0 146 0;
#X connect 208 0 155 0;
#X connect 212 0 211 0;
#X connect 213 0 211 0;
#X connect 214 0 10 0;
#X connect 215 0 3 0;
#X connect 216 0 29 1;
#X connect 217 0 47 1;
#X connect 218 0 9 0;
#X connect 219 0 5 0;
#X connect 220 0 69 0;
#X connect 221 0 2 0;
#X connect 222 0 224 0;
#X connect 223 0 185 0;
#X connect 224 0 173 0;
#X connect 224 1 174 0;
#X connect 224 2 175 0;
#X connect 224 3 225 0;
#X connect 225 0 226 0;
#X connect 226 0 121 0;
#X connect 227 0 193 0;
#X connect 228 0 199 0;
#X connect 229 0 227 0;
#X connect 230 0 228 0;
#X connect 231 0 149 0;
#X connect 231 0 146 0;
#X connect 231 0 167 0;
#X connect 232 0 265 1;
#X connect 233 0 232 0;
#X connect 234 0 235 1;
#X connect 234 1 236 1;
#X connect 235 0 237 1;
#X connect 236 0 237 0;
#X connect 238 0 11 0;
#X connect 239 0 32 0;
#X connect 240 0 33 0;
#X connect 241 0 34 0;
#X connect 242 0 36 0;
#X connect 243 0 51 0;
#X connect 244 0 52 0;
#X connect 245 0 53 0;
#X connect 246 0 55 0;
#X connect 247 0 60 0;
#X connect 248 0 61 0;
#X connect 249 0 62 0;
#X connect 250 0 238 0;
#X connect 250 0 239 0;
#X connect 250 0 240 0;
#X connect 250 0 241 0;
#X connect 251 0 246 0;
#X connect 251 0 247 0;
#X connect 251 0 248 0;
#X connect 251 0 249 0;
#X connect 252 0 242 0;
#X connect 252 0 243 0;
#X connect 252 0 244 0;
#X connect 252 0 245 0;
#X connect 253 0 77 0;
#X connect 254 0 92 0;
#X connect 255 0 93 0;
#X connect 256 0 94 0;
#X connect 257 0 253 0;
#X connect 257 0 254 0;
#X connect 257 0 255 0;
#X connect 257 0 256 0;
#X connect 258 0 95 0;
#X connect 259 0 100 0;
#X connect 260 0 101 0;
#X connect 261 0 102 0;
#X connect 262 0 258 0;
#X connect 262 0 259 0;
#X connect 262 0 260 0;
#X connect 262 0 261 0;
#X connect 263 0 112 0;
#X connect 263 0 189 0;
#X connect 264 0 186 0;
#X connect 265 0 187 0;
#X connect 266 0 71 0;
#X connect 266 0 269 0;
#X connect 267 0 70 0;
#X connect 267 0 268 0;
#X connect 268 0 24 0;
#X connect 269 0 25 0;
